<svg width="61" height="54" viewBox="0 0 61 54" fill="none" xmlns="http://www.w3.org/2000/svg">
<path d="M57.0757 24.0833H48.1483V3.66667C48.1483 2.89312 47.8347 2.15125 47.2767 1.60427C46.7186 1.05729 45.9617 0.75 45.1724 0.75H3.51098C2.72174 0.75 1.96483 1.05729 1.40675 1.60427C0.848679 2.15125 0.535156 2.89312 0.535156 3.66667V44.5C0.535156 49.3242 4.54061 53.25 9.46261 53.25H51.1241C56.0461 53.25 60.0515 49.3242 60.0515 44.5V27C60.0515 26.2265 59.738 25.4846 59.1799 24.9376C58.6219 24.3906 57.865 24.0833 57.0757 24.0833ZM9.46261 47.4167C8.67338 47.4167 7.91647 47.1094 7.35839 46.5624C6.80032 46.0154 6.48679 45.2735 6.48679 44.5V6.58333H42.1966V44.5C42.1966 45.5238 42.3781 46.5067 42.7055 47.4167H9.46261ZM54.0999 44.5C54.0999 45.2735 53.7864 46.0154 53.2283 46.5624C52.6702 47.1094 51.9133 47.4167 51.1241 47.4167C50.3348 47.4167 49.5779 47.1094 49.0199 46.5624C48.4618 46.0154 48.1483 45.2735 48.1483 44.5V29.9167H54.0999V44.5Z" fill="white"/>
<path d="M12.4385 12.418H36.245V18.2513H12.4385V12.418ZM12.4385 24.0846H36.245V29.918H12.4385V24.0846ZM27.3176 35.7513H36.245V41.5846H27.3176V35.7513Z" fill="white"/>
</svg>
